<?xml version="1.0" encoding="utf-8"?>
<svg width="184" height="80" viewBox="5.138 152.531 250.982 140.58" xmlns="http://www.w3.org/2000/svg" xmlns:xlink="http://www.w3.org/1999/xlink">
  <defs>
    <path id="path-0" d="M 147.5 180.194 C 189.702 180.194 216.957 180.194 244.212 180.194 L 245.565 180.194 C 247.657 180.194 247.613 180.648 247.779 179.073" style="fill: none;"/>
    <path id="path-1" d="M 160.577 212.93 C 188.826 212.93 205.221 212.93 221.616 212.93 L 222.056 212.93 C 222.559 212.737 223.113 212.412 223.616 212.219" style="fill: none;"/>
    <path id="path-2" d="M 161.878 249.461 C 203.469 249.461 234.243 249.461 265.017 249.461 L 267.726 249.461 C 268.644 249.461 269.562 249.461 270.481 249.461" style="fill: none;"/>
  </defs>
  <g transform="matrix(4.604849, 0, 0, 4.604849, 119.411201, 37.18317)">
    <path fill="#FFF" d="M30 5h2v2h-2z"/>
  </g>
  <g transform="matrix(4.722922, 0, 0, 4.722922, 31.520582, 231.064026)"/>
  <g transform="matrix(5.246133, 0, 0, 5.246133, 205.790497, 229.223068)">
    <g>
      <path fill="none" d="M0 0h24v24H0z"/>
    </g>
  </g>
  <g transform="matrix(7.084383, 0, 0, 7.084383, -8.203612, 136.735962)">
    <g>
      <path d="M0 0h24v24H0z" fill="none"/>
      <path d="M9 19h3v-6.058L8 9.454l-4 3.488V19h3v-4h2v4zm12 2H3a1 1 0 0 1-1-1v-7.513a1 1 0 0 1 .343-.754L6 8.544V4a1 1 0 0 1 1-1h14a1 1 0 0 1 1 1v16a1 1 0 0 1-1 1zm-5-10v2h2v-2h-2zm0 4v2h2v-2h-2zm0-8v2h2V7h-2zm-4 0v2h2V7h-2z" style="paint-order: fill; fill: rgba(233, 19, 19, 0.91);"/>
    </g>
  </g>
  <text style="fill: rgba(38, 37, 40, 0.9); fill-rule: evenodd; font-family: Arial, sans-serif; font-size: 28px; paint-order: fill; white-space: pre;" transform="matrix(1.271086, 0, 0, 1.315054, -36.797272, -43.052425)"><textPath xlink:href="#path-0">Sell</textPath></text>
  <text style="fill: rgba(34, 34, 36, 0.94); font-family: Arial, sans-serif; font-size: 28px; white-space: pre;" transform="matrix(1.251233, 0, 0, 1.141414, -48.491169, -15.337227)"><textPath xlink:href="#path-1">My</textPath></text>
  <text style="fill: rgba(28, 27, 30, 0.93); font-family: Arial, sans-serif; font-size: 28px; white-space: pre;" transform="matrix(1.733768, 0, 0, 2.019935, -129.548141, -227.375336)"><textPath xlink:href="#path-2">HDB</textPath></text>
</svg>