<?xml version="1.0" encoding="utf-8"?>
<svg width="250" height="80" viewBox="5.138 152.531 594.862 140.58" xmlns="http://www.w3.org/2000/svg">
  <defs>
    <path id="path-0" d="M 147.5 180.194 C 189.702 180.194 216.957 180.194 244.212 180.194 L 245.565 180.194 C 247.657 180.194 247.613 180.648 247.779 179.073" style="fill: none;"/>
    <path id="path-1" d="M 160.577 212.93 C 188.826 212.93 205.221 212.93 221.616 212.93 L 222.056 212.93 C 222.559 212.737 223.113 212.412 223.616 212.219" style="fill: none;"/>
    <path id="path-2" d="M 161.878 249.461 C 203.469 249.461 234.243 249.461 265.017 249.461 L 267.726 249.461 C 268.644 249.461 269.562 249.461 270.481 249.461" style="fill: none;"/>
  </defs>
  <g transform="matrix(4.604849, 0, 0, 4.604849, 119.411201, 37.18317)">
    <path fill="#FFF" d="M30 5h2v2h-2z"/>
  </g>
  <g transform="matrix(4.722922, 0, 0, 4.722922, 31.520582, 231.064026)"/>
  <g transform="matrix(5.246133, 0, 0, 5.246133, 205.790497, 229.223068)">
    <g>
      <path fill="none" d="M0 0h24v24H0z"/>
    </g>
  </g>
  <g transform="matrix(7.084383, 0, 0, 7.084383, -8.203612, 136.735962)">
    <g>
      <path fill="none" d="M0 0h24v24H0z"/>
      <path d="M9 19h3v-6.058L8 9.454l-4 3.488V19h3v-4h2v4zm12 2H3a1 1 0 0 1-1-1v-7.513a1 1 0 0 1 .343-.754L6 8.544V4a1 1 0 0 1 1-1h14a1 1 0 0 1 1 1v16a1 1 0 0 1-1 1zm-5-10v2h2v-2h-2zm0 4v2h2v-2h-2zm0-8v2h2V7h-2zm-4 0v2h2V7h-2z" style="fill: rgb(56, 190, 201);"/>
    </g>
  </g>
  <text style="fill: rgb(57, 190, 201); font-family: Arial, sans-serif; font-size: 20.2px; white-space: pre;" transform="matrix(3.879554, 0, 0, 4.923136, -446.008911, -665.414368)" x="155.141" y="186.789">Sell My HDB</text>
  <text style="white-space: pre; fill: rgb(51, 51, 51); font-family: Arial, sans-serif; font-size: 20.2px;" x="208.24" y="280.282"> </text>
</svg>